<svg id="kity_svg_6" xmlns="http://www.w3.org/2000/svg" xmlns:xlink="http://www.w3.org/1999/xlink" version="1.1" width="1418" height="335" style="background: rgb(251, 251, 251); visibility: visible;" viewBox="0 0 1418 335"><defs id="kity_defs_7"><linearGradient id="kity_linearGradient_17" x1="0" y1="0" x2="0" y2="1"><stop id="kity_stop_18" offset="0" stop-color="rgb(255, 255, 255)"></stop><stop id="kity_stop_19" offset="1" stop-color="rgb(204, 204, 204)"></stop></linearGradient><marker id="kity_marker_2" orient="auto" refX="6" refY="0" viewBox="-7 -7 14 14" markerWidth="7" markerHeight="7" markerUnits="userSpaceOnUse"><path id="kity_path_3" fill="rgb(115, 161, 191)" stroke="none" d="M6,0A6,6,0,1,1,-6,0A6,6,0,1,1,6,0"></path></marker></defs><g id="kity_g_8"><g id="minder1" text-rendering="geometricPrecision"><g id="minder_connect_group1"><path id="kity_path_31" fill="none" stroke="rgb(115, 161, 191)" stroke-width="1" d="M649.4999995139505,167.4999945981934A162,83,0,0,1,811.4999995139505,84.49999459819341"></path><path id="kity_path_47" fill="none" stroke="rgb(115, 161, 191)" stroke-width="1" d="M649.4999995139505,167.4999945981934A162,83,0,0,0,811.4999995139505,250.4999945981934"></path><path id="kity_path_55" fill="none" stroke="rgb(115, 161, 191)" stroke-width="1" d="M992.4999995139505,316.49999459819344C1007.4999995139505,316.49999459819344,1007.4999995139505,316.49999459819344,1022.4999995139505,316.49999459819344L1321.4999995139506,316.49999459819344"></path><path id="kity_path_63" fill="none" stroke="rgb(115, 161, 191)" stroke-width="1" d="M998.4999995139505,46.49999459819341C1013.4999995139505,46.49999459819341,1013.4999995139505,46.49999459819341,1028.4999995139506,46.49999459819341L1144.4999995139506,46.49999459819341"></path><path id="kity_path_71" fill="none" stroke="rgb(115, 161, 191)" stroke-width="1" d="M649.4999995139505,167.4999945981934A162,45,0,0,0,487.49999951395046,122.49999459819341"></path><path id="kity_path_95" fill="none" stroke="rgb(115, 161, 191)" stroke-width="1" d="M649.4999995139505,167.4999945981934A162,45,0,0,1,487.49999951395046,212.4999945981934"></path><path id="kity_path_103" fill="none" stroke="rgb(115, 161, 191)" stroke-width="1" d="M256.49999951395046,110.49999459819341C241.49999951395046,110.49999459819341,241.49999951395046,110.49999459819341,226.49999951395046,110.49999459819341L21.499999513950456,110.49999459819341"></path><path id="kity_path_111" fill="none" stroke="rgb(115, 161, 191)" stroke-width="1" d="M346.49999951395046,212.4999945981934C331.49999951395046,212.4999945981934,331.49999951395046,226.4999945981934,316.49999951395046,226.4999945981934L132.49999951395046,226.4999945981934"></path><path id="kity_path_127" fill="none" stroke="rgb(115, 161, 191)" stroke-width="1" d="M900.4999995139505,84.49999459819341C915.4999995139505,84.49999459819341,915.4999995139505,46.49999459819341,930.4999995139505,46.49999459819341L998.4999995139505,46.49999459819341"></path><path id="kity_path_143" fill="none" stroke="rgb(115, 161, 191)" stroke-width="1" d="M900.4999995139505,84.49999459819341C915.4999995139505,84.49999459819341,915.4999995139505,150.4999945981934,930.4999995139505,150.4999945981934L998.4999995139505,150.4999945981934"></path><path id="kity_path_151" fill="none" stroke="rgb(115, 161, 191)" stroke-width="1" d="M900.4999995139505,250.4999945981934C915.4999995139505,250.4999945981934,915.4999995139505,212.4999945981934,930.4999995139505,212.4999945981934L1122.4999995139506,212.4999945981934"></path><path id="kity_path_159" fill="none" stroke="rgb(115, 161, 191)" stroke-width="1" d="M900.4999995139505,250.4999945981934C915.4999995139505,250.4999945981934,915.4999995139505,316.49999459819344,930.4999995139505,316.49999459819344L992.4999995139505,316.49999459819344"></path><path id="kity_path_167" fill="none" stroke="rgb(115, 161, 191)" stroke-width="1" d="M1122.4999995139506,212.4999945981934C1137.4999995139506,212.4999945981934,1137.4999995139506,212.4999945981934,1152.4999995139506,212.4999945981934L1399.4999995139506,212.4999945981934"></path><path id="kity_path_175" fill="none" stroke="rgb(115, 161, 191)" stroke-width="1" d="M900.4999995139505,84.49999459819341C915.4999995139505,84.49999459819341,915.4999995139505,98.49999459819341,930.4999995139505,98.49999459819341L1010.4999995139505,98.49999459819341"></path><path id="kity_path_183" fill="none" stroke="rgb(115, 161, 191)" stroke-width="1" d="M1010.4999995139505,98.49999459819341C1025.4999995139506,98.49999459819341,1025.4999995139506,98.49999459819341,1040.4999995139506,98.49999459819341L1208.4999995139506,98.49999459819341"></path><path id="kity_path_191" fill="none" stroke="rgb(115, 161, 191)" stroke-width="1" d="M900.4999995139505,250.4999945981934C915.4999995139505,250.4999945981934,915.4999995139505,264.49999459819344,930.4999995139505,264.49999459819344L1010.4999995139505,264.49999459819344"></path><path id="kity_path_199" fill="none" stroke="rgb(115, 161, 191)" stroke-width="1" d="M388.49999951395046,122.49999459819341C373.49999951395046,122.49999459819341,373.49999951395046,110.49999459819341,358.49999951395046,110.49999459819341L256.49999951395046,110.49999459819341"></path><path id="kity_path_207" fill="none" stroke="rgb(115, 161, 191)" stroke-width="1" d="M388.49999951395046,122.49999459819341C373.49999951395046,122.49999459819341,373.49999951395046,162.4999945981934,358.49999951395046,162.4999945981934L255.49999951395046,162.4999945981934"></path><path id="kity_path_215" fill="none" stroke="rgb(115, 161, 191)" stroke-width="1" d="M255.49999951395046,162.4999945981934C240.49999951395046,162.4999945981934,240.49999951395046,162.4999945981934,225.49999951395046,162.4999945981934L50.499999513950456,162.4999945981934"></path></g><g id="minder_node1"><path id="node_outline1" fill="rgb(115, 161, 191)" stroke="rgb(115, 161, 191)" d="M610.4999995139505,147.4999945981934h78a5,5,0,0,1,5,5v30a5,5,0,0,1,-5,5h-78a5,5,0,0,1,-5,-5v-30a5,5,0,0,1,5,-5z" stroke-width="3"></path><g id="node_text1" fill="white"><text id="kity_text_22" text-rendering="inherit" font-size="16" dy=".8em" y="159.4999945981934" x="629.4999995139505">Index</text></g></g><g id="kity_g_14" display="none"><path id="kity_path_15" fill="rgba(0, 92, 153, 0.5)" stroke="none" d="M256.49999951395046,78.49999459819341h92v15h-92z"></path><path id="kity_path_16" fill="none" stroke="rgb(0, 76, 128)" d="M256.49999951395046,93.49999459819341L348.49999951395046,93.49999459819341" stroke-width="1"></path></g><g id="minder_node2"><g id="node_expander1" style="cursor: pointer;"><path id="kity_path_36" fill="white" stroke="gray" d="M812.4999969119367,84.49999576752825A6,6,0,1,1,800.4999969119367,84.49999576752825A6,6,0,1,1,812.4999969119367,84.49999576752825"></path><path id="kity_path_37" fill="none" stroke="gray" d="M801.9999969119367,84.49999576752825L810.9999969119367,84.49999576752825"></path></g><path id="node_outline2" fill="rgb(238, 243, 246)" stroke="rgb(115, 161, 191)" d="M816.4999966399228,71.49999576752825h81a3,3,0,0,1,3,3v20a3,3,0,0,1,-3,3h-81a3,3,0,0,1,-3,-3v-20a3,3,0,0,1,3,-3z" stroke-width="1"></path><g id="node_text2" fill="black"><text id="kity_text_33" text-rendering="inherit" font-size="14" dy=".8em" y="77.49999576752825" x="833.4999966399228">KV绑定</text></g></g><g id="minder_node4"><g id="node_expander3" style="cursor: pointer;"><path id="kity_path_52" fill="white" stroke="gray" d="M812.4999969119367,250.4999934288586A6,6,0,1,1,800.4999969119367,250.4999934288586A6,6,0,1,1,812.4999969119367,250.4999934288586"></path><path id="kity_path_53" fill="none" stroke="gray" d="M801.9999969119367,250.4999934288586L810.9999969119367,250.4999934288586"></path></g><path id="node_outline4" fill="rgb(238, 243, 246)" stroke="rgb(115, 161, 191)" d="M816.4999966399228,237.4999934288586h81a3,3,0,0,1,3,3v20a3,3,0,0,1,-3,3h-81a3,3,0,0,1,-3,-3v-20a3,3,0,0,1,3,-3z" stroke-width="1"></path><g id="node_text4" fill="black"><text id="kity_text_49" text-rendering="inherit" font-size="14" dy=".8em" y="243.4999934288586" x="833.4999966399228">KV分离</text></g></g><g id="minder_node5" opacity="1"><g id="node_expander4" style="cursor: pointer;" display="none"><path id="kity_path_60" fill="white" stroke="gray" d="M1032.4999939208672,302.4999926962633A6,6,0,1,1,1020.4999939208672,302.4999926962633A6,6,0,1,1,1032.4999939208672,302.4999926962633"></path><path id="kity_path_61" fill="none" stroke="gray"></path></g><path id="node_outline5" fill="none" stroke="none" d="M1037.4999936954532,291.4999926962633h279a5,5,0,0,1,5,5v12a5,5,0,0,1,-5,5h-279a5,5,0,0,1,-5,-5v-12a5,5,0,0,1,5,-5z" stroke-width="3"></path><g id="node_text5" fill="black"><text id="kity_text_57" text-rendering="inherit" font-size="12" dy=".8em" y="296.4999926962633" x="1042.4999936954532">去重系统，不过无range query需求，因此无序无碍</text></g></g><g id="minder_node6" opacity="1"><g id="node_expander5" style="cursor: pointer;" display="none"><path id="kity_path_68" fill="white" stroke="gray" d="M1038.499993836337,32.499996500123565A6,6,0,1,1,1026.499993836337,32.499996500123565A6,6,0,1,1,1038.499993836337,32.499996500123565"></path><path id="kity_path_69" fill="none" stroke="gray" d="M1027.999993836337,32.499996500123565L1036.999993836337,32.499996500123565"></path></g><path id="node_outline6" fill="none" stroke="none" d="M1043.499993610923,21.499996500123558h96a5,5,0,0,1,5,5v12a5,5,0,0,1,-5,5h-96a5,5,0,0,1,-5,-5v-12a5,5,0,0,1,5,-5z" stroke-width="3"></path><g id="node_text6" fill="black"><text id="kity_text_65" text-rendering="inherit" font-size="12" dy=".8em" y="26.499996500123565" x="1048.499993610923">各种树LSMTree</text></g></g><g id="minder_node7"><g id="node_expander6" style="cursor: pointer;"><path id="kity_path_76" fill="white" stroke="gray" d="M498.500001010569,122.49999523217014A6,6,0,1,1,486.500001010569,122.49999523217014A6,6,0,1,1,498.500001010569,122.49999523217014"></path><path id="kity_path_77" fill="none" stroke="gray" d="M488.000001010569,122.49999523217014L497.000001010569,122.49999523217014"></path></g><path id="node_outline7" fill="rgb(238, 243, 246)" stroke="rgb(115, 161, 191)" d="M391.5000026274805,109.49999523217014h91a3,3,0,0,1,3,3v20a3,3,0,0,1,-3,3h-91a3,3,0,0,1,-3,-3v-20a3,3,0,0,1,3,-3z" stroke-width="1"></path><g id="node_text7" fill="black"><text id="kity_text_73" text-rendering="inherit" font-size="14" dy=".8em" y="115.49999523217014" x="408.5000026274805">基于内存</text></g></g><g id="minder_node10"><g id="node_expander9" style="cursor: pointer;"><path id="kity_path_100" fill="white" stroke="gray" d="M498.5000042617313,212.4999939642167A6,6,0,1,1,486.5000042617313,212.4999939642167A6,6,0,1,1,498.5000042617313,212.4999939642167"></path><path id="kity_path_101" fill="none" stroke="gray" d="M488.0000042617313,212.4999939642167L497.0000042617313,212.4999939642167"></path></g><path id="node_outline10" fill="rgb(238, 243, 246)" stroke="rgb(115, 161, 191)" d="M349.5000032191921,199.4999939642167h133a3,3,0,0,1,3,3v20a3,3,0,0,1,-3,3h-133a3,3,0,0,1,-3,-3v-20a3,3,0,0,1,3,-3z" stroke-width="1"></path><g id="node_text10" fill="black"><text id="kity_text_97" text-rendering="inherit" font-size="14" dy=".8em" y="205.4999939642167" x="366.5000032191921">基于持久化存储</text></g></g><g id="minder_node11" opacity="1"><g id="node_expander10" style="cursor: pointer;" display="none"><path id="kity_path_108" fill="white" stroke="gray" d="M228.50000665675464,96.49999559846779A6,6,0,1,1,216.50000665675464,96.49999559846779A6,6,0,1,1,228.50000665675464,96.49999559846779"></path><path id="kity_path_109" fill="none" stroke="gray"></path></g><path id="node_outline11" fill="none" stroke="none" d="M26.500007938796557,85.49999559846778h185a5,5,0,0,1,5,5v12a5,5,0,0,1,-5,5h-185a5,5,0,0,1,-5,-5v-12a5,5,0,0,1,5,-5z" stroke-width="3"></path><g id="node_text11" fill="black"><text id="kity_text_105" text-rendering="inherit" font-size="12" dy=".8em" y="90.49999559846779" x="31.500007938796557">x小数据集的去重系统的哈希索引</text></g></g><g id="minder_node12"><g id="node_expander11" style="cursor: pointer;" display="none"><path id="kity_path_116" fill="white" stroke="gray" d="M318.50000029531355,212.4999939642167A6,6,0,1,1,306.50000029531355,212.4999939642167A6,6,0,1,1,318.50000029531355,212.4999939642167"></path><path id="kity_path_117" fill="none" stroke="gray"></path></g><path id="node_outline12" fill="none" stroke="none" d="M137.50000637498732,201.4999939642167h164a5,5,0,0,1,5,5v12a5,5,0,0,1,-5,5h-164a5,5,0,0,1,-5,-5v-12a5,5,0,0,1,5,-5z" stroke-width="3"></path><g id="node_text12" fill="black"><text id="kity_text_113" text-rendering="inherit" font-size="12" dy=".8em" y="206.4999939642167" x="142.50000637498732">各种树，去重系统的SSTable</text></g></g><g id="minder_node14"><g id="node_expander13" style="cursor: pointer;"><path id="kity_path_132" fill="white" stroke="gray" d="M940.4999952169971,32.499996500123565A6,6,0,1,1,928.4999952169971,32.499996500123565A6,6,0,1,1,940.4999952169971,32.499996500123565"></path><path id="kity_path_133" fill="none" stroke="gray" d="M929.9999952169971,32.499996500123565L938.9999952169971,32.499996500123565"></path></g><path id="node_outline14" fill="none" stroke="none" d="M945.4999949915832,21.499996500123558h48a5,5,0,0,1,5,5v12a5,5,0,0,1,-5,5h-48a5,5,0,0,1,-5,-5v-12a5,5,0,0,1,5,-5z" stroke-width="3"></path><g id="node_text14" fill="black"><text id="kity_text_129" text-rendering="inherit" font-size="12" dy=".8em" y="26.499996500123565" x="950.4999949915832">kv有序</text></g></g><g id="minder_node16"><g id="node_expander15" style="cursor: pointer;" display="none"><path id="kity_path_148" fill="white" stroke="gray" d="M940.4999952169971,136.49999503493294A6,6,0,1,1,928.4999952169971,136.49999503493294A6,6,0,1,1,940.4999952169971,136.49999503493294"></path><path id="kity_path_149" fill="none" stroke="gray"></path></g><path id="node_outline16" fill="none" stroke="none" d="M945.4999949915832,125.49999503493294h48a5,5,0,0,1,5,5v12a5,5,0,0,1,-5,5h-48a5,5,0,0,1,-5,-5v-12a5,5,0,0,1,5,-5z" stroke-width="3"></path><g id="node_text16" fill="black"><text id="kity_text_145" text-rendering="inherit" font-size="12" dy=".8em" y="130.49999503493294" x="950.4999949915832">kv无序</text></g></g><g id="minder_node17"><g id="node_expander16" style="cursor: pointer;"><path id="kity_path_156" fill="white" stroke="gray" d="M940.4999952169971,198.4999941614539A6,6,0,1,1,928.4999952169971,198.4999941614539A6,6,0,1,1,940.4999952169971,198.4999941614539"></path><path id="kity_path_157" fill="none" stroke="gray" d="M929.9999952169971,198.4999941614539L938.9999952169971,198.4999941614539"></path></g><path id="node_outline17" fill="none" stroke="none" d="M945.4999949915832,187.4999941614539h172a5,5,0,0,1,5,5v12a5,5,0,0,1,-5,5h-172a5,5,0,0,1,-5,-5v-12a5,5,0,0,1,5,-5z" stroke-width="3"></path><g id="node_text17" fill="black"><text id="kity_text_153" text-rendering="inherit" font-size="12" dy=".8em" y="192.4999941614539" x="950.4999949915832">k有序，v类似log顺序写，无序</text></g></g><g id="minder_node18"><g id="node_expander17" style="cursor: pointer;"><path id="kity_path_164" fill="white" stroke="gray" d="M940.4999952169971,302.4999926962633A6,6,0,1,1,928.4999952169971,302.4999926962633A6,6,0,1,1,940.4999952169971,302.4999926962633"></path><path id="kity_path_165" fill="none" stroke="gray" d="M929.9999952169971,302.4999926962633L938.9999952169971,302.4999926962633"></path></g><path id="node_outline18" fill="none" stroke="none" d="M945.4999949915832,291.4999926962633h42a5,5,0,0,1,5,5v12a5,5,0,0,1,-5,5h-42a5,5,0,0,1,-5,-5v-12a5,5,0,0,1,5,-5z" stroke-width="3"></path><g id="node_text18" fill="black"><text id="kity_text_161" text-rendering="inherit" font-size="12" dy=".8em" y="296.4999926962633" x="950.4999949915832">k无序</text></g></g><g id="minder_node19"><g id="node_expander18" style="cursor: pointer;" display="none"><path id="kity_path_172" fill="white" stroke="gray" d="M1162.4999920893788,198.4999941614539A6,6,0,1,1,1150.4999920893788,198.4999941614539A6,6,0,1,1,1162.4999920893788,198.4999941614539"></path><path id="kity_path_173" fill="none" stroke="gray"></path></g><path id="node_outline19" fill="none" stroke="none" d="M1167.4999918639649,187.4999941614539h227a5,5,0,0,1,5,5v12a5,5,0,0,1,-5,5h-227a5,5,0,0,1,-5,-5v-12a5,5,0,0,1,5,-5z" stroke-width="3"></path><g id="node_text19" fill="black"><text id="kity_text_169" text-rendering="inherit" font-size="12" dy=".8em" y="192.4999941614539" x="1172.4999918639649">WiscKey，levelDB中仅有K，缓解写放大</text></g></g><g id="minder_node20" opacity="1"><g id="node_expander19" style="cursor: pointer;"><path id="kity_path_180" fill="white" stroke="gray" d="M940.4999952169971,84.49999576752825A6,6,0,1,1,928.4999952169971,84.49999576752825A6,6,0,1,1,940.4999952169971,84.49999576752825"></path><path id="kity_path_181" fill="none" stroke="gray" d="M929.9999952169971,84.49999576752825L938.9999952169971,84.49999576752825"></path></g><path id="node_outline20" fill="none" stroke="none" d="M945.4999949915832,73.49999576752825h60a5,5,0,0,1,5,5v12a5,5,0,0,1,-5,5h-60a5,5,0,0,1,-5,-5v-12a5,5,0,0,1,5,-5z" stroke-width="3"></path><g id="node_text20" fill="black"><text id="kity_text_177" text-rendering="inherit" font-size="12" dy=".8em" y="78.49999576752825" x="950.4999949915832">kv弱有序</text></g></g><g id="minder_node21"><g id="node_expander20" style="cursor: pointer;" display="none"><path id="kity_path_188" fill="white" stroke="gray" d="M1050.4999936672764,84.49999576752825A6,6,0,1,1,1038.4999936672764,84.49999576752825A6,6,0,1,1,1050.4999936672764,84.49999576752825"></path><path id="kity_path_189" fill="none" stroke="gray"></path></g><path id="node_outline21" fill="none" stroke="none" d="M1055.4999934418624,73.49999576752825h148a5,5,0,0,1,5,5v12a5,5,0,0,1,-5,5h-148a5,5,0,0,1,-5,-5v-12a5,5,0,0,1,5,-5z" stroke-width="3"></path><g id="node_text21" fill="black"><text id="kity_text_185" text-rendering="inherit" font-size="12" dy=".8em" y="78.49999576752825" x="1060.4999934418624">PebblesDB，跳表levelDB</text></g></g><g id="minder_node22" opacity="1"><g id="node_expander21" style="cursor: pointer;" display="none"><path id="kity_path_196" fill="white" stroke="gray" d="M940.4999952169971,250.4999934288586A6,6,0,1,1,928.4999952169971,250.4999934288586A6,6,0,1,1,940.4999952169971,250.4999934288586"></path><path id="kity_path_197" fill="none" stroke="gray"></path></g><path id="node_outline22" fill="none" stroke="none" d="M945.4999949915832,239.4999934288586h60a5,5,0,0,1,5,5v12a5,5,0,0,1,-5,5h-60a5,5,0,0,1,-5,-5v-12a5,5,0,0,1,5,-5z" stroke-width="3"></path><g id="node_text22" fill="black"><text id="kity_text_193" text-rendering="inherit" font-size="12" dy=".8em" y="244.4999934288586" x="950.4999949915832">kv弱有序</text></g></g><g id="minder_node23"><g id="node_expander22" style="cursor: pointer;"><path id="kity_path_204" fill="white" stroke="gray" d="M360.5000042552292,96.49999559846779A6,6,0,1,1,348.5000042552292,96.49999559846779A6,6,0,1,1,360.5000042552292,96.49999559846779"></path><path id="kity_path_205" fill="none" stroke="gray" d="M350.0000042552292,96.49999559846779L359.0000042552292,96.49999559846779"></path></g><path id="node_outline23" fill="none" stroke="none" d="M261.5000046280293,85.49999559846778h82a5,5,0,0,1,5,5v12a5,5,0,0,1,-5,5h-82a5,5,0,0,1,-5,-5v-12a5,5,0,0,1,5,-5z" stroke-width="3"></path><g id="node_text23" fill="black"><text id="kity_text_201" text-rendering="inherit" font-size="12" dy=".8em" y="90.49999559846779" x="266.5000046280293">Perfect Index</text></g></g><g id="minder_node24"><g id="node_expander23" style="cursor: pointer;"><path id="kity_path_212" fill="white" stroke="gray" d="M360.50000284639214,148.49999486587248A6,6,0,1,1,348.50000284639214,148.49999486587248A6,6,0,1,1,360.50000284639214,148.49999486587248"></path><path id="kity_path_213" fill="none" stroke="gray" d="M350.00000284639214,148.49999486587248L359.00000284639214,148.49999486587248"></path></g><path id="node_outline24" fill="none" stroke="none" d="M260.5000046421176,137.49999486587248h83a5,5,0,0,1,5,5v12a5,5,0,0,1,-5,5h-83a5,5,0,0,1,-5,-5v-12a5,5,0,0,1,5,-5z" stroke-width="3"></path><g id="node_text24" fill="black"><text id="kity_text_209" text-rendering="inherit" font-size="12" dy=".8em" y="142.49999486587248" x="265.5000046421176">Sparse Index</text></g></g><g id="kity_g_12" display="none"><path id="kity_path_13" fill="none" stroke="rgb(66, 94, 112)" d="M261.49999951395046,98.49999459819341h82a5,5,0,0,1,5,5v12a5,5,0,0,1,-5,5h-82a5,5,0,0,1,-5,-5v-12a5,5,0,0,1,5,-5z" stroke-width="5"></path></g><g id="minder_node25"><g id="node_expander24" style="cursor: pointer;" display="none"><path id="kity_path_220" fill="white" stroke="gray" d="M227.5000073210755,148.49999486587248A6,6,0,1,1,215.5000073210755,148.49999486587248A6,6,0,1,1,227.5000073210755,148.49999486587248"></path><path id="kity_path_221" fill="none" stroke="gray"></path></g><path id="node_outline25" fill="none" stroke="none" d="M55.5000075302338,137.49999486587248h155a5,5,0,0,1,5,5v12a5,5,0,0,1,-5,5h-155a5,5,0,0,1,-5,-5v-12a5,5,0,0,1,5,-5z" stroke-width="3"></path><g id="node_text25" fill="black"><text id="kity_text_217" text-rendering="inherit" font-size="12" dy=".8em" y="142.49999486587248" x="60.5000075302338">大部分去重系统的哈希索引</text></g></g></g></g></svg>