<svg id="kity_svg_6" xmlns="http://www.w3.org/2000/svg" xmlns:xlink="http://www.w3.org/1999/xlink" version="1.1" width="1515" height="387" style="background: rgb(251, 251, 251); visibility: visible;" viewBox="0 0 1515 387"><defs id="kity_defs_7"><linearGradient id="kity_linearGradient_17" x1="0" y1="0" x2="0" y2="1"><stop id="kity_stop_18" offset="0" stop-color="rgb(255, 255, 255)"></stop><stop id="kity_stop_19" offset="1" stop-color="rgb(204, 204, 204)"></stop></linearGradient><marker id="kity_marker_2" orient="auto" refX="6" refY="0" viewBox="-7 -7 14 14" markerWidth="7" markerHeight="7" markerUnits="userSpaceOnUse"><path id="kity_path_3" fill="rgb(115, 161, 191)" stroke="none" d="M6,0A6,6,0,1,1,-6,0A6,6,0,1,1,6,0"></path></marker></defs><g id="kity_g_8"><g id="minder1" text-rendering="geometricPrecision"><g id="minder_connect_group1"><path id="kity_path_31" fill="none" stroke="rgb(115, 161, 191)" stroke-width="1" d="M643.4999995139505,173.49999248277058A162,89,0,0,1,805.4999995139505,84.49999248277058"></path><path id="kity_path_47" fill="none" stroke="rgb(115, 161, 191)" stroke-width="1" d="M643.4999995139505,173.49999248277058A162,90,0,0,0,805.4999995139505,263.4999924827706"></path><path id="kity_path_55" fill="none" stroke="rgb(115, 161, 191)" stroke-width="1" d="M1089.4999995139506,342.4999924827706C1104.4999995139506,342.4999924827706,1104.4999995139506,316.4999924827706,1119.4999995139506,316.4999924827706L1418.4999995139506,316.4999924827706"></path><path id="kity_path_63" fill="none" stroke="rgb(115, 161, 191)" stroke-width="1" d="M1206.4999995139506,46.49999248277058C1221.4999995139506,46.49999248277058,1221.4999995139506,46.49999248277058,1236.4999995139506,46.49999248277058L1352.4999995139506,46.49999248277058"></path><path id="kity_path_71" fill="none" stroke="rgb(115, 161, 191)" stroke-width="1" d="M643.4999995139505,173.49999248277058A162,51,0,0,0,481.49999951395046,122.49999248277058"></path><path id="kity_path_95" fill="none" stroke="rgb(115, 161, 191)" stroke-width="1" d="M643.4999995139505,173.49999248277058A162,52,0,0,1,481.49999951395046,225.49999248277058"></path><path id="kity_path_103" fill="none" stroke="rgb(115, 161, 191)" stroke-width="1" d="M250.49999951395046,97.49999248277058C235.49999951395046,97.49999248277058,235.49999951395046,71.49999248277058,220.49999951395046,71.49999248277058L21.499999513950456,71.49999248277058"></path><path id="kity_path_111" fill="none" stroke="rgb(115, 161, 191)" stroke-width="1" d="M340.49999951395046,225.49999248277058C325.49999951395046,225.49999248277058,325.49999951395046,239.49999248277058,310.49999951395046,239.49999248277058L126.49999951395046,239.49999248277058"></path><path id="kity_path_127" fill="none" stroke="rgb(115, 161, 191)" stroke-width="1" d="M997.4999995139505,84.49999248277058C1012.4999995139505,84.49999248277058,1012.4999995139505,46.49999248277058,1027.4999995139506,46.49999248277058L1206.4999995139506,46.49999248277058"></path><path id="kity_path_143" fill="none" stroke="rgb(115, 161, 191)" stroke-width="1" d="M997.4999995139505,84.49999248277058C1012.4999995139505,84.49999248277058,1012.4999995139505,150.49999248277058,1027.4999995139506,150.49999248277058L1095.4999995139506,150.49999248277058"></path><path id="kity_path_151" fill="none" stroke="rgb(115, 161, 191)" stroke-width="1" d="M997.4999995139505,263.4999924827706C1012.4999995139505,263.4999924827706,1012.4999995139505,212.49999248277058,1027.4999995139506,212.49999248277058L1219.4999995139506,212.49999248277058"></path><path id="kity_path_159" fill="none" stroke="rgb(115, 161, 191)" stroke-width="1" d="M997.4999995139505,263.4999924827706C1012.4999995139505,263.4999924827706,1012.4999995139505,342.4999924827706,1027.4999995139506,342.4999924827706L1089.4999995139506,342.4999924827706"></path><path id="kity_path_167" fill="none" stroke="rgb(115, 161, 191)" stroke-width="1" d="M1219.4999995139506,212.49999248277058C1234.4999995139506,212.49999248277058,1234.4999995139506,212.49999248277058,1249.4999995139506,212.49999248277058L1496.4999995139506,212.49999248277058"></path><path id="kity_path_175" fill="none" stroke="rgb(115, 161, 191)" stroke-width="1" d="M997.4999995139505,84.49999248277058C1012.4999995139505,84.49999248277058,1012.4999995139505,98.49999248277058,1027.4999995139506,98.49999248277058L1107.4999995139506,98.49999248277058"></path><path id="kity_path_183" fill="none" stroke="rgb(115, 161, 191)" stroke-width="1" d="M1107.4999995139506,98.49999248277058C1122.4999995139506,98.49999248277058,1122.4999995139506,98.49999248277058,1137.4999995139506,98.49999248277058L1305.4999995139506,98.49999248277058"></path><path id="kity_path_191" fill="none" stroke="rgb(115, 161, 191)" stroke-width="1" d="M997.4999995139505,263.4999924827706C1012.4999995139505,263.4999924827706,1012.4999995139505,264.4999924827706,1027.4999995139506,264.4999924827706L1107.4999995139506,264.4999924827706"></path><path id="kity_path_199" fill="none" stroke="rgb(115, 161, 191)" stroke-width="1" d="M382.49999951395046,122.49999248277058C367.49999951395046,122.49999248277058,367.49999951395046,97.49999248277058,352.49999951395046,97.49999248277058L250.49999951395046,97.49999248277058"></path><path id="kity_path_207" fill="none" stroke="rgb(115, 161, 191)" stroke-width="1" d="M382.49999951395046,122.49999248277058C367.49999951395046,122.49999248277058,367.49999951395046,175.49999248277058,352.49999951395046,175.49999248277058L249.49999951395046,175.49999248277058"></path><path id="kity_path_215" fill="none" stroke="rgb(115, 161, 191)" stroke-width="1" d="M249.49999951395046,175.49999248277058C234.49999951395046,175.49999248277058,234.49999951395046,175.49999248277058,219.49999951395046,175.49999248277058L44.499999513950456,175.49999248277058"></path><path id="kity_path_223" fill="none" stroke="rgb(115, 161, 191)" stroke-width="1" d="M250.49999951395046,97.49999248277058C235.49999951395046,97.49999248277058,235.49999951395046,123.49999248277058,220.49999951395046,123.49999248277058L75.49999951395046,123.49999248277058"></path><path id="kity_path_231" fill="none" stroke="rgb(115, 161, 191)" stroke-width="1" d="M1089.4999995139506,342.4999924827706C1104.4999995139506,342.4999924827706,1104.4999995139506,368.4999924827706,1119.4999995139506,368.4999924827706L1264.4999995139506,368.4999924827706"></path></g><g id="minder_node1"><path id="node_outline1" fill="rgb(115, 161, 191)" stroke="rgb(115, 161, 191)" d="M604.4999995139505,153.49999248277058h78a5,5,0,0,1,5,5v30a5,5,0,0,1,-5,5h-78a5,5,0,0,1,-5,-5v-30a5,5,0,0,1,5,-5z" stroke-width="3"></path><g id="node_text1" fill="white"><text id="kity_text_22" text-rendering="inherit" font-size="16" dy=".8em" y="165.49999248277058" x="623.4999995139505">Index</text></g></g><g id="kity_g_14" display="none"><path id="kity_path_15" fill="rgba(0, 92, 153, 0.5)" stroke="none" d="M250.49999951395046,84.49999248277058h92v15h-92z"></path><path id="kity_path_16" fill="none" stroke="rgb(0, 76, 128)" d="M250.49999951395046,99.49999248277058L342.49999951395046,99.49999248277058" stroke-width="1"></path></g><g id="minder_node2"><g id="node_expander1" style="cursor: pointer;"><path id="kity_path_36" fill="white" stroke="gray" d="M806.4999969119367,84.49999373663564A6,6,0,1,1,794.4999969119367,84.49999373663564A6,6,0,1,1,806.4999969119367,84.49999373663564"></path><path id="kity_path_37" fill="none" stroke="gray" d="M795.9999969119367,84.49999373663564L804.9999969119367,84.49999373663564"></path></g><path id="node_outline2" fill="rgb(238, 243, 246)" stroke="rgb(115, 161, 191)" d="M810.4999966399228,71.49999373663563h184a3,3,0,0,1,3,3v20a3,3,0,0,1,-3,3h-184a3,3,0,0,1,-3,-3v-20a3,3,0,0,1,3,-3z" stroke-width="1"></path><g id="node_text2" fill="black"><text id="kity_text_33" text-rendering="inherit" font-size="14" dy=".8em" y="77.49999373663564" x="827.4999966399228">KV绑定（适合小value）</text></g></g><g id="minder_node4"><g id="node_expander3" style="cursor: pointer;"><path id="kity_path_52" fill="white" stroke="gray" d="M806.4999969119367,263.4999912148172A6,6,0,1,1,794.4999969119367,263.4999912148172A6,6,0,1,1,806.4999969119367,263.4999912148172"></path><path id="kity_path_53" fill="none" stroke="gray" d="M795.9999969119367,263.4999912148172L804.9999969119367,263.4999912148172"></path></g><path id="node_outline4" fill="rgb(238, 243, 246)" stroke="rgb(115, 161, 191)" d="M810.4999966399228,250.49999121481721h184a3,3,0,0,1,3,3v20a3,3,0,0,1,-3,3h-184a3,3,0,0,1,-3,-3v-20a3,3,0,0,1,3,-3z" stroke-width="1"></path><g id="node_text4" fill="black"><text id="kity_text_49" text-rendering="inherit" font-size="14" dy=".8em" y="256.4999912148172" x="827.4999966399228">KV分离（适合大value）</text></g></g><g id="minder_node5" opacity="1"><g id="node_expander4" style="cursor: pointer;" display="none"><path id="kity_path_60" fill="white" stroke="gray" d="M1129.4999924697647,302.49999066537066A6,6,0,1,1,1117.4999924697647,302.49999066537066A6,6,0,1,1,1129.4999924697647,302.49999066537066"></path><path id="kity_path_61" fill="none" stroke="gray"></path></g><path id="node_outline5" fill="none" stroke="none" d="M1134.4999922443508,291.49999066537066h279a5,5,0,0,1,5,5v12a5,5,0,0,1,-5,5h-279a5,5,0,0,1,-5,-5v-12a5,5,0,0,1,5,-5z" stroke-width="3"></path><g id="node_text5" fill="black"><text id="kity_text_57" text-rendering="inherit" font-size="12" dy=".8em" y="296.49999066537066" x="1139.4999922443508">去重系统，不过无range query需求，因此无序无碍</text></g></g><g id="minder_node6" opacity="1"><g id="node_expander5" style="cursor: pointer;" display="none"><path id="kity_path_68" fill="white" stroke="gray" d="M1246.4999908214252,32.499994469230934A6,6,0,1,1,1234.4999908214252,32.499994469230934A6,6,0,1,1,1246.4999908214252,32.499994469230934"></path><path id="kity_path_69" fill="none" stroke="gray" d="M1235.9999908214252,32.499994469230934L1244.9999908214252,32.499994469230934"></path></g><path id="node_outline6" fill="none" stroke="none" d="M1251.4999905960112,21.499994469230927h96a5,5,0,0,1,5,5v12a5,5,0,0,1,-5,5h-96a5,5,0,0,1,-5,-5v-12a5,5,0,0,1,5,-5z" stroke-width="3"></path><g id="node_text6" fill="black"><text id="kity_text_65" text-rendering="inherit" font-size="12" dy=".8em" y="26.499994469230934" x="1256.4999905960112">各种树LSMTree</text></g></g><g id="minder_node7"><g id="node_expander6" style="cursor: pointer;"><path id="kity_path_76" fill="white" stroke="gray" d="M492.500001010569,122.49999320127753A6,6,0,1,1,480.500001010569,122.49999320127753A6,6,0,1,1,492.500001010569,122.49999320127753"></path><path id="kity_path_77" fill="none" stroke="gray" d="M482.000001010569,122.49999320127753L491.000001010569,122.49999320127753"></path></g><path id="node_outline7" fill="rgb(238, 243, 246)" stroke="rgb(115, 161, 191)" d="M385.5000026274805,109.49999320127752h91a3,3,0,0,1,3,3v20a3,3,0,0,1,-3,3h-91a3,3,0,0,1,-3,-3v-20a3,3,0,0,1,3,-3z" stroke-width="1"></path><g id="node_text7" fill="black"><text id="kity_text_73" text-rendering="inherit" font-size="14" dy=".8em" y="115.49999320127753" x="402.5000026274805">基于内存</text></g></g><g id="minder_node10"><g id="node_expander9" style="cursor: pointer;"><path id="kity_path_100" fill="white" stroke="gray" d="M492.50000426173136,225.49999175017527A6,6,0,1,1,480.50000426173136,225.49999175017527A6,6,0,1,1,492.50000426173136,225.49999175017527"></path><path id="kity_path_101" fill="none" stroke="gray" d="M482.00000426173136,225.49999175017527L491.00000426173136,225.49999175017527"></path></g><path id="node_outline10" fill="rgb(238, 243, 246)" stroke="rgb(115, 161, 191)" d="M343.50000321919214,212.49999175017527h133a3,3,0,0,1,3,3v20a3,3,0,0,1,-3,3h-133a3,3,0,0,1,-3,-3v-20a3,3,0,0,1,3,-3z" stroke-width="1"></path><g id="node_text10" fill="black"><text id="kity_text_97" text-rendering="inherit" font-size="14" dy=".8em" y="218.49999175017527" x="360.50000321919214">基于持久化存储</text></g></g><g id="minder_node11" opacity="1"><g id="node_expander10" style="cursor: pointer;" display="none"><path id="kity_path_108" fill="white" stroke="gray" d="M222.50000123815076,57.499994117021664A6,6,0,1,1,210.50000123815076,57.499994117021664A6,6,0,1,1,222.50000123815076,57.499994117021664"></path><path id="kity_path_109" fill="none" stroke="gray"></path></g><path id="node_outline11" fill="none" stroke="none" d="M26.5000078542663,46.49999411702166h179a5,5,0,0,1,5,5v12a5,5,0,0,1,-5,5h-179a5,5,0,0,1,-5,-5v-12a5,5,0,0,1,5,-5z" stroke-width="3"></path><g id="node_text11" fill="black"><text id="kity_text_105" text-rendering="inherit" font-size="12" dy=".8em" y="51.499994117021664" x="31.5000078542663">小数据集的去重系统的哈希索引</text></g></g><g id="minder_node12"><g id="node_expander11" style="cursor: pointer;" display="none"><path id="kity_path_116" fill="white" stroke="gray" d="M312.5000002953136,225.49999175017527A6,6,0,1,1,300.5000002953136,225.49999175017527A6,6,0,1,1,312.5000002953136,225.49999175017527"></path><path id="kity_path_117" fill="none" stroke="gray"></path></g><path id="node_outline12" fill="none" stroke="none" d="M131.50000637498732,214.49999175017527h164a5,5,0,0,1,5,5v12a5,5,0,0,1,-5,5h-164a5,5,0,0,1,-5,-5v-12a5,5,0,0,1,5,-5z" stroke-width="3"></path><g id="node_text12" fill="black"><text id="kity_text_113" text-rendering="inherit" font-size="12" dy=".8em" y="219.49999175017527" x="136.50000637498732">各种树，去重系统的SSTable</text></g></g><g id="minder_node14"><g id="node_expander13" style="cursor: pointer;"><path id="kity_path_132" fill="white" stroke="gray" d="M1037.499993765895,32.499994469230934A6,6,0,1,1,1025.499993765895,32.499994469230934A6,6,0,1,1,1037.499993765895,32.499994469230934"></path><path id="kity_path_133" fill="none" stroke="gray" d="M1026.999993765895,32.499994469230934L1035.999993765895,32.499994469230934"></path></g><path id="node_outline14" fill="none" stroke="none" d="M1042.499993540481,21.499994469230927h159a5,5,0,0,1,5,5v12a5,5,0,0,1,-5,5h-159a5,5,0,0,1,-5,-5v-12a5,5,0,0,1,5,-5z" stroke-width="3"></path><g id="node_text14" fill="black"><text id="kity_text_129" text-rendering="inherit" font-size="12" dy=".8em" y="26.499994469230934" x="1047.499993540481">kv有序（适合range query）</text></g></g><g id="minder_node16"><g id="node_expander15" style="cursor: pointer;" display="none"><path id="kity_path_148" fill="white" stroke="gray" d="M1037.499993765895,136.49999300404033A6,6,0,1,1,1025.499993765895,136.49999300404033A6,6,0,1,1,1037.499993765895,136.49999300404033"></path><path id="kity_path_149" fill="none" stroke="gray"></path></g><path id="node_outline16" fill="none" stroke="none" d="M1042.499993540481,125.49999300404033h48a5,5,0,0,1,5,5v12a5,5,0,0,1,-5,5h-48a5,5,0,0,1,-5,-5v-12a5,5,0,0,1,5,-5z" stroke-width="3"></path><g id="node_text16" fill="black"><text id="kity_text_145" text-rendering="inherit" font-size="12" dy=".8em" y="130.49999300404033" x="1047.499993540481">kv无序</text></g></g><g id="minder_node17"><g id="node_expander16" style="cursor: pointer;"><path id="kity_path_156" fill="white" stroke="gray" d="M1037.499993765895,198.4999921305613A6,6,0,1,1,1025.499993765895,198.4999921305613A6,6,0,1,1,1037.499993765895,198.4999921305613"></path><path id="kity_path_157" fill="none" stroke="gray" d="M1026.999993765895,198.4999921305613L1035.999993765895,198.4999921305613"></path></g><path id="node_outline17" fill="none" stroke="none" d="M1042.499993540481,187.4999921305613h172a5,5,0,0,1,5,5v12a5,5,0,0,1,-5,5h-172a5,5,0,0,1,-5,-5v-12a5,5,0,0,1,5,-5z" stroke-width="3"></path><g id="node_text17" fill="black"><text id="kity_text_153" text-rendering="inherit" font-size="12" dy=".8em" y="192.4999921305613" x="1047.499993540481">k有序，v类似log顺序写，无序</text></g></g><g id="minder_node18"><g id="node_expander17" style="cursor: pointer;"><path id="kity_path_164" fill="white" stroke="gray" d="M1037.499993765895,328.49999029907303A6,6,0,1,1,1025.499993765895,328.49999029907303A6,6,0,1,1,1037.499993765895,328.49999029907303"></path><path id="kity_path_165" fill="none" stroke="gray" d="M1026.999993765895,328.49999029907303L1035.999993765895,328.49999029907303"></path></g><path id="node_outline18" fill="none" stroke="none" d="M1042.499993540481,317.49999029907303h42a5,5,0,0,1,5,5v12a5,5,0,0,1,-5,5h-42a5,5,0,0,1,-5,-5v-12a5,5,0,0,1,5,-5z" stroke-width="3"></path><g id="node_text18" fill="black"><text id="kity_text_161" text-rendering="inherit" font-size="12" dy=".8em" y="322.49999029907303" x="1047.499993540481">k无序</text></g></g><g id="minder_node19"><g id="node_expander18" style="cursor: pointer;" display="none"><path id="kity_path_172" fill="white" stroke="gray" d="M1259.4999906382766,198.4999921305613A6,6,0,1,1,1247.4999906382766,198.4999921305613A6,6,0,1,1,1259.4999906382766,198.4999921305613"></path><path id="kity_path_173" fill="none" stroke="gray"></path></g><path id="node_outline19" fill="none" stroke="none" d="M1264.4999904128626,187.4999921305613h227a5,5,0,0,1,5,5v12a5,5,0,0,1,-5,5h-227a5,5,0,0,1,-5,-5v-12a5,5,0,0,1,5,-5z" stroke-width="3"></path><g id="node_text19" fill="black"><text id="kity_text_169" text-rendering="inherit" font-size="12" dy=".8em" y="192.4999921305613" x="1269.4999904128626">WiscKey，levelDB中仅有K，缓解写放大</text></g></g><g id="minder_node20" opacity="1"><g id="node_expander19" style="cursor: pointer;"><path id="kity_path_180" fill="white" stroke="gray" d="M1037.499993765895,84.49999373663564A6,6,0,1,1,1025.499993765895,84.49999373663564A6,6,0,1,1,1037.499993765895,84.49999373663564"></path><path id="kity_path_181" fill="none" stroke="gray" d="M1026.999993765895,84.49999373663564L1035.999993765895,84.49999373663564"></path></g><path id="node_outline20" fill="none" stroke="none" d="M1042.499993540481,73.49999373663563h60a5,5,0,0,1,5,5v12a5,5,0,0,1,-5,5h-60a5,5,0,0,1,-5,-5v-12a5,5,0,0,1,5,-5z" stroke-width="3"></path><g id="node_text20" fill="black"><text id="kity_text_177" text-rendering="inherit" font-size="12" dy=".8em" y="78.49999373663564" x="1047.499993540481">kv弱有序</text></g></g><g id="minder_node21"><g id="node_expander20" style="cursor: pointer;" display="none"><path id="kity_path_188" fill="white" stroke="gray" d="M1147.4999922161742,84.49999373663564A6,6,0,1,1,1135.4999922161742,84.49999373663564A6,6,0,1,1,1147.4999922161742,84.49999373663564"></path><path id="kity_path_189" fill="none" stroke="gray"></path></g><path id="node_outline21" fill="none" stroke="none" d="M1152.4999919907602,73.49999373663563h148a5,5,0,0,1,5,5v12a5,5,0,0,1,-5,5h-148a5,5,0,0,1,-5,-5v-12a5,5,0,0,1,5,-5z" stroke-width="3"></path><g id="node_text21" fill="black"><text id="kity_text_185" text-rendering="inherit" font-size="12" dy=".8em" y="78.49999373663564" x="1157.4999919907602">PebblesDB，跳表levelDB</text></g></g><g id="minder_node22" opacity="1"><g id="node_expander21" style="cursor: pointer;" display="none"><path id="kity_path_196" fill="white" stroke="gray" d="M1037.499993765895,250.499991397966A6,6,0,1,1,1025.499993765895,250.499991397966A6,6,0,1,1,1037.499993765895,250.499991397966"></path><path id="kity_path_197" fill="none" stroke="gray"></path></g><path id="node_outline22" fill="none" stroke="none" d="M1042.499993540481,239.499991397966h60a5,5,0,0,1,5,5v12a5,5,0,0,1,-5,5h-60a5,5,0,0,1,-5,-5v-12a5,5,0,0,1,5,-5z" stroke-width="3"></path><g id="node_text22" fill="black"><text id="kity_text_193" text-rendering="inherit" font-size="12" dy=".8em" y="244.499991397966" x="1047.499993540481">kv弱有序</text></g></g><g id="minder_node23"><g id="node_expander22" style="cursor: pointer;"><path id="kity_path_204" fill="white" stroke="gray" d="M354.5000042552292,83.499993750724A6,6,0,1,1,342.5000042552292,83.499993750724A6,6,0,1,1,354.5000042552292,83.499993750724"></path><path id="kity_path_205" fill="none" stroke="gray" d="M344.0000042552292,83.499993750724L353.0000042552292,83.499993750724"></path></g><path id="node_outline23" fill="none" stroke="none" d="M255.50000462802927,72.499993750724h82a5,5,0,0,1,5,5v12a5,5,0,0,1,-5,5h-82a5,5,0,0,1,-5,-5v-12a5,5,0,0,1,5,-5z" stroke-width="3"></path><g id="node_text23" fill="black"><text id="kity_text_201" text-rendering="inherit" font-size="12" dy=".8em" y="77.499993750724" x="260.5000046280293">Perfect Index</text></g></g><g id="minder_node24"><g id="node_expander23" style="cursor: pointer;"><path id="kity_path_212" fill="white" stroke="gray" d="M354.5000028463922,161.49999265183104A6,6,0,1,1,342.5000028463922,161.49999265183104A6,6,0,1,1,354.5000028463922,161.49999265183104"></path><path id="kity_path_213" fill="none" stroke="gray" d="M344.0000028463922,161.49999265183104L353.0000028463922,161.49999265183104"></path></g><path id="node_outline24" fill="none" stroke="none" d="M254.50000464211763,150.49999265183104h83a5,5,0,0,1,5,5v12a5,5,0,0,1,-5,5h-83a5,5,0,0,1,-5,-5v-12a5,5,0,0,1,5,-5z" stroke-width="3"></path><g id="node_text24" fill="black"><text id="kity_text_209" text-rendering="inherit" font-size="12" dy=".8em" y="155.49999265183104" x="259.50000464211763">Sparse Index</text></g></g><g id="kity_g_12" display="none"><path id="kity_path_13" fill="none" stroke="rgb(66, 94, 112)" d="M255.49999951395046,104.49999248277058h82a5,5,0,0,1,5,5v12a5,5,0,0,1,-5,5h-82a5,5,0,0,1,-5,-5v-12a5,5,0,0,1,5,-5z" stroke-width="5"></path></g><g id="minder_node25"><g id="node_expander24" style="cursor: pointer;" display="none"><path id="kity_path_220" fill="white" stroke="gray" d="M221.50000732107551,161.49999265183104A6,6,0,1,1,209.50000732107551,161.49999265183104A6,6,0,1,1,221.50000732107551,161.49999265183104"></path><path id="kity_path_221" fill="none" stroke="gray"></path></g><path id="node_outline25" fill="none" stroke="none" d="M49.5000075302338,150.49999265183104h155a5,5,0,0,1,5,5v12a5,5,0,0,1,-5,5h-155a5,5,0,0,1,-5,-5v-12a5,5,0,0,1,5,-5z" stroke-width="3"></path><g id="node_text25" fill="black"><text id="kity_text_217" text-rendering="inherit" font-size="12" dy=".8em" y="155.49999265183104" x="54.5000075302338">大部分去重系统的哈希索引</text></g></g><g id="minder_node26"><g id="node_expander25" style="cursor: pointer;" display="none"><path id="kity_path_228" fill="white" stroke="gray" d="M222.50000795721942,109.49999338442635A6,6,0,1,1,210.50000795721942,109.49999338442635A6,6,0,1,1,222.50000795721942,109.49999338442635"></path><path id="kity_path_229" fill="none" stroke="gray"></path></g><path id="node_outline26" fill="none" stroke="none" d="M80.5000070934941,98.49999338442635h125a5,5,0,0,1,5,5v12a5,5,0,0,1,-5,5h-125a5,5,0,0,1,-5,-5v-12a5,5,0,0,1,5,-5z" stroke-width="3"></path><g id="node_text26" fill="black"><text id="kity_text_225" text-rendering="inherit" font-size="12" dy=".8em" y="103.49999338442635" x="85.5000070934941">哈希存储引擎 bitcask</text></g></g><g id="minder_node27"><g id="node_expander26" style="cursor: pointer;" display="none"><path id="kity_path_236" fill="white" stroke="gray" d="M1129.4999924697647,354.4999899327754A6,6,0,1,1,1117.4999924697647,354.4999899327754A6,6,0,1,1,1129.4999924697647,354.4999899327754"></path><path id="kity_path_237" fill="none" stroke="gray"></path></g><path id="node_outline27" fill="none" stroke="none" d="M1134.4999922443508,343.4999899327754h125a5,5,0,0,1,5,5v12a5,5,0,0,1,-5,5h-125a5,5,0,0,1,-5,-5v-12a5,5,0,0,1,5,-5z" stroke-width="3"></path><g id="node_text27" fill="black"><text id="kity_text_233" text-rendering="inherit" font-size="12" dy=".8em" y="348.4999899327754" x="1139.4999922443508">哈希存储引擎 bitcask</text></g></g></g></g></svg>